<svg width="24" height="25" viewBox="0 0 24 25" fill="none" xmlns="http://www.w3.org/2000/svg">
<path d="M23.1459 17.2766C23.1243 17.139 23.0913 17.0035 23.0472 16.8714C22.625 15.6967 21.4214 14.9939 20.1909 15.2035C19.7839 15.2676 19.4019 14.9896 19.3377 14.5826L18.7185 10.6208C18.2103 7.26879 15.7888 4.52375 12.5264 3.60137C12.2297 1.78541 10.5171 0.553787 8.70105 0.850506C6.90908 1.14331 5.68152 2.81703 5.94068 4.61418C3.12861 6.39381 1.64423 9.67529 2.16442 12.9623L2.82793 17.1789C2.88869 17.5852 2.61224 17.965 2.20707 18.0321C0.971523 18.2104 0.0416086 19.2488 0.000136491 20.4964C-0.0141608 21.8809 1.09658 23.0148 2.48102 23.0291C2.48969 23.0292 2.4984 23.0293 2.50707 23.0293C2.63775 23.0292 2.76819 23.0191 2.89731 22.9992L5.46941 22.5948C6.36417 24.192 8.38435 24.7616 9.98164 23.8668C10.8253 23.3942 11.4206 22.5768 11.6114 21.6288L21.0584 20.1421C22.4261 19.9273 23.3608 18.6444 23.1459 17.2766ZM8.99165 2.58445C9.07875 2.57089 9.16674 2.56389 9.25487 2.56354C9.81507 2.56653 10.3369 2.84861 10.6462 3.31562H10.6061C10.2945 3.30622 9.98247 3.31518 9.67185 3.34236C9.34472 3.37359 9.01965 3.42383 8.69831 3.49277C8.62892 3.50697 8.56042 3.52705 8.49188 3.54374C8.22865 3.60558 7.97041 3.67829 7.71722 3.76437C7.69215 3.77191 7.66625 3.77607 7.64118 3.78528C7.8175 3.15517 8.34528 2.68585 8.99165 2.58445ZM8.35654 22.619C8.00239 22.6194 7.65749 22.5057 7.37301 22.2948L9.71283 21.9279C9.39794 22.3627 8.89338 22.6198 8.35654 22.619ZM21.3817 18.1007C21.2538 18.3108 21.0398 18.4539 20.7967 18.4918L10.7315 20.0745L5.84045 20.8441L2.63995 21.3454C2.39749 21.385 2.15003 21.3146 1.96475 21.1533C1.77565 20.992 1.66818 20.7549 1.67146 20.5065C1.70764 20.0779 2.03996 19.7337 2.46697 19.6825C3.78311 19.4715 4.68178 18.2372 4.47834 16.9199L3.81567 12.7032C3.38165 9.92143 4.73241 7.16494 7.19669 5.80336C7.21119 5.79851 7.22539 5.79293 7.23929 5.78666C8.03906 5.35334 8.91884 5.08771 9.82476 5.00618C10.0993 4.98205 10.3751 4.97676 10.6504 4.99032L10.7874 4.99703C11.0722 5.01426 11.3555 5.04996 11.6356 5.10401C11.6448 5.10401 11.6532 5.10401 11.6624 5.10401C14.4899 5.71571 16.642 8.01631 17.064 10.8783L17.6874 14.8401C17.8946 16.1587 19.1313 17.0599 20.45 16.8532C20.8715 16.7709 21.2928 16.9955 21.4595 17.3914C21.5409 17.6274 21.5124 17.8877 21.3817 18.1007Z" fill="#222222"/>
</svg>
