<svg width="23" height="25" viewBox="0 0 23 25" fill="none" xmlns="http://www.w3.org/2000/svg">
<path d="M19.0684 12.8351V10.498C19.0684 7.08877 16.8023 4.19917 13.6973 3.25537V2.19727C13.6973 0.985693 12.7116 0 11.5001 0C10.2885 0 9.30279 0.985693 9.30279 2.19727V3.25537C6.19781 4.19917 3.9317 7.08872 3.9317 10.498V12.8351C3.9317 15.8298 2.79019 18.6694 0.717489 20.831C0.514364 21.0428 0.457284 21.3553 0.57242 21.6252C0.687557 21.8952 0.952694 22.0703 1.24615 22.0703H7.91163C8.25186 23.7398 9.73155 25 11.5001 25C13.2686 25 14.7482 23.7398 15.0885 22.0703H21.754C22.0474 22.0703 22.3125 21.8952 22.4276 21.6252C22.5428 21.3553 22.4857 21.0428 22.2826 20.831C20.2099 18.6694 19.0684 15.8297 19.0684 12.8351ZM10.7676 2.19727C10.7676 1.79341 11.0962 1.46484 11.5001 1.46484C11.9039 1.46484 12.2325 1.79341 12.2325 2.19727V2.96523C11.9914 2.94199 11.7471 2.92969 11.5001 2.92969C11.253 2.92969 11.0087 2.94199 10.7676 2.96523V2.19727ZM11.5001 23.5352C10.5452 23.5352 9.73111 22.9228 9.42877 22.0703H13.5713C13.269 22.9228 12.4549 23.5352 11.5001 23.5352ZM2.82476 20.6055C4.49278 18.3695 5.39654 15.6637 5.39654 12.8351V10.498C5.39654 7.13257 8.13458 4.39453 11.5001 4.39453C14.8655 4.39453 17.6036 7.13257 17.6036 10.498V12.8351C17.6036 15.6637 18.5073 18.3695 20.1754 20.6055H2.82476Z" fill="#222222"/>
<path d="M21.0219 10.498C21.0219 10.9025 21.3498 11.2304 21.7543 11.2304C22.1588 11.2304 22.4867 10.9025 22.4867 10.498C22.4867 7.56345 21.3439 4.80451 19.2689 2.72946C18.9829 2.44348 18.5191 2.44343 18.2331 2.72946C17.947 3.0155 17.947 3.47922 18.2331 3.76525C20.0315 5.56364 21.0219 7.95471 21.0219 10.498Z" fill="#222222"/>
<path d="M1.24609 11.2305C1.65059 11.2305 1.97852 10.9025 1.97852 10.498C1.97852 7.95479 2.96895 5.56372 4.76728 3.76533C5.05332 3.4793 5.05332 3.01558 4.76728 2.72954C4.4813 2.44351 4.01753 2.44351 3.73149 2.72954C1.65645 4.80459 0.513672 7.56348 0.513672 10.498C0.513672 10.9025 0.841602 11.2305 1.24609 11.2305Z" fill="#222222"/>
</svg>
