<svg width="25" height="24" viewBox="0 0 25 24" fill="none" xmlns="http://www.w3.org/2000/svg">
<path d="M24.5801 10.5571L22.4681 8.63269V2.25168C22.4681 1.84568 22.139 1.51648 21.7329 1.51648H16.6492C16.2432 1.51648 15.914 1.84563 15.914 2.25168V2.66057L13.3634 0.336499C12.8711 -0.112183 12.1286 -0.112134 11.6365 0.33645L0.419817 10.5571C0.0254808 10.9165 -0.104841 11.4702 0.0878343 11.9677C0.280559 12.4652 0.749797 12.7866 1.28334 12.7866H3.0748V23.0269C3.0748 23.4329 3.40395 23.7621 3.81 23.7621H9.95809C10.3641 23.7621 10.6933 23.433 10.6933 23.0269V16.8093H14.3066V23.027C14.3066 23.433 14.6358 23.7622 15.0418 23.7622H21.1897C21.5957 23.7622 21.9249 23.433 21.9248 23.027V12.7867H23.7167C24.2502 12.7867 24.7195 12.4652 24.9122 11.9677C25.1048 11.4702 24.9745 10.9165 24.5801 10.5571ZM21.1897 11.3163C20.7837 11.3163 20.4545 11.6454 20.4545 12.0515V22.2918H15.7771V16.0741C15.7771 15.6681 15.4479 15.3389 15.0419 15.3389H9.95809C9.55209 15.3389 9.22289 15.6681 9.22289 16.0741V22.2918H4.54516V12.0515C4.54516 11.6455 4.21601 11.3163 3.80995 11.3163H1.76977L12.5 1.53894L16.1541 4.86858C16.3694 5.06467 16.6801 5.11521 16.9463 4.99768C17.2126 4.88 17.3845 4.61623 17.3845 4.32512V2.98689H20.9978V8.95739C20.9978 9.16428 21.0849 9.3615 21.2379 9.50085L23.2302 11.3163H21.1897Z" fill="#222222"/>
</svg>
